<svg xmlns="http://www.w3.org/2000/svg" xmlns:xlink="http://www.w3.org/1999/xlink" width="1100" zoomAndPan="magnify" viewBox="0 0 824.88 1049.999947" height="1400" preserveAspectRatio="xMidYMid meet" version="1.2"><defs><clipPath id="8becf58f7f"><path d="M 257 215 L 824.761719 215 L 824.761719 835 L 257 835 Z M 257 215 "/></clipPath></defs><g id="24dbcdf6c2"><g clip-rule="nonzero" clip-path="url(#8becf58f7f)"><path style=" stroke:none;fill-rule:evenodd;fill:#ffffff;fill-opacity:1;" d="M 309.328125 293.003906 C 309.328125 292.15625 309.371094 291.316406 309.453125 290.476562 C 309.535156 289.636719 309.660156 288.800781 309.824219 287.972656 C 309.988281 287.144531 310.195312 286.328125 310.441406 285.519531 C 310.683594 284.710938 310.96875 283.917969 311.292969 283.136719 C 311.617188 282.359375 311.976562 281.59375 312.375 280.851562 C 312.773438 280.105469 313.207031 279.382812 313.675781 278.679688 C 314.144531 277.980469 314.644531 277.300781 315.179688 276.648438 C 315.71875 275.996094 316.28125 275.371094 316.878906 274.773438 C 317.476562 274.179688 318.101562 273.613281 318.753906 273.074219 C 319.40625 272.539062 320.085938 272.039062 320.785156 271.570312 C 321.488281 271.101562 322.210938 270.667969 322.957031 270.269531 C 323.699219 269.871094 324.464844 269.511719 325.242188 269.1875 C 326.023438 268.863281 326.816406 268.578125 327.625 268.335938 C 328.433594 268.089844 329.25 267.886719 330.078125 267.71875 C 330.90625 267.554688 331.742188 267.433594 332.582031 267.347656 C 333.421875 267.265625 334.261719 267.226562 335.109375 267.226562 L 747.546875 267.226562 C 748.390625 267.226562 749.234375 267.265625 750.074219 267.347656 C 750.914062 267.433594 751.75 267.554688 752.578125 267.71875 C 753.40625 267.886719 754.222656 268.089844 755.03125 268.335938 C 755.839844 268.578125 756.632812 268.863281 757.410156 269.1875 C 758.191406 269.511719 758.953125 269.871094 759.699219 270.269531 C 760.445312 270.667969 761.167969 271.101562 761.867188 271.570312 C 762.570312 272.039062 763.246094 272.539062 763.902344 273.074219 C 764.554688 273.613281 765.179688 274.179688 765.773438 274.773438 C 766.371094 275.371094 766.9375 275.996094 767.472656 276.648438 C 768.007812 277.300781 768.511719 277.980469 768.980469 278.679688 C 769.449219 279.382812 769.882812 280.105469 770.28125 280.851562 C 770.679688 281.59375 771.039062 282.359375 771.363281 283.136719 C 771.6875 283.917969 771.96875 284.710938 772.214844 285.519531 C 772.460938 286.328125 772.664062 287.144531 772.828125 287.972656 C 772.996094 288.800781 773.117188 289.636719 773.199219 290.476562 C 773.285156 291.316406 773.324219 292.15625 773.324219 293.003906 L 773.324219 756.996094 C 773.324219 757.839844 773.285156 758.683594 773.199219 759.523438 C 773.117188 760.363281 772.996094 761.199219 772.828125 762.027344 C 772.664062 762.855469 772.460938 763.671875 772.214844 764.480469 C 771.96875 765.289062 771.6875 766.082031 771.363281 766.863281 C 771.039062 767.640625 770.679688 768.402344 770.28125 769.148438 C 769.882812 769.894531 769.449219 770.617188 768.980469 771.320312 C 768.511719 772.019531 768.007812 772.699219 767.472656 773.351562 C 766.9375 774.003906 766.371094 774.628906 765.773438 775.226562 C 765.179688 775.820312 764.554688 776.386719 763.902344 776.921875 C 763.246094 777.460938 762.570312 777.960938 761.867188 778.429688 C 761.167969 778.898438 760.445312 779.332031 759.699219 779.730469 C 758.953125 780.128906 758.191406 780.488281 757.410156 780.8125 C 756.632812 781.136719 755.839844 781.417969 755.03125 781.664062 C 754.222656 781.910156 753.40625 782.113281 752.578125 782.28125 C 751.75 782.445312 750.914062 782.566406 750.074219 782.652344 C 749.234375 782.734375 748.390625 782.773438 747.546875 782.773438 L 335.109375 782.773438 C 334.261719 782.773438 333.421875 782.734375 332.582031 782.652344 C 331.742188 782.566406 330.90625 782.445312 330.078125 782.28125 C 329.25 782.113281 328.433594 781.910156 327.625 781.664062 C 326.816406 781.417969 326.023438 781.136719 325.242188 780.8125 C 324.460938 780.488281 323.699219 780.128906 322.957031 779.730469 C 322.210938 779.332031 321.488281 778.898438 320.785156 778.429688 C 320.085938 777.960938 319.40625 777.460938 318.753906 776.921875 C 318.101562 776.386719 317.476562 775.820312 316.878906 775.226562 C 316.28125 774.628906 315.71875 774.003906 315.179688 773.351562 C 314.644531 772.699219 314.144531 772.019531 313.675781 771.320312 C 313.207031 770.617188 312.773438 769.894531 312.375 769.148438 C 311.976562 768.402344 311.613281 767.640625 311.292969 766.863281 C 310.96875 766.082031 310.683594 765.289062 310.441406 764.480469 C 310.195312 763.671875 309.988281 762.855469 309.824219 762.027344 C 309.660156 761.199219 309.535156 760.363281 309.453125 759.523438 C 309.371094 758.683594 309.328125 757.839844 309.328125 756.996094 L 309.328125 653.886719 C 309.328125 653.042969 309.289062 652.199219 309.207031 651.359375 C 309.125 650.519531 309 649.6875 308.835938 648.859375 C 308.671875 648.03125 308.464844 647.210938 308.21875 646.40625 C 307.976562 645.597656 307.691406 644.804688 307.367188 644.023438 C 307.042969 643.242188 306.683594 642.480469 306.285156 641.734375 C 305.886719 640.992188 305.453125 640.269531 304.984375 639.566406 C 304.515625 638.863281 304.015625 638.1875 303.480469 637.535156 C 302.941406 636.882812 302.375 636.257812 301.78125 635.660156 C 301.183594 635.0625 300.558594 634.496094 299.90625 633.960938 C 299.253906 633.425781 298.574219 632.921875 297.875 632.453125 C 297.171875 631.984375 296.449219 631.550781 295.703125 631.152344 C 294.960938 630.753906 294.195312 630.394531 293.417969 630.070312 C 292.636719 629.75 291.84375 629.464844 291.035156 629.21875 C 290.226562 628.976562 289.410156 628.769531 288.582031 628.605469 C 287.753906 628.441406 286.917969 628.316406 286.078125 628.234375 C 285.238281 628.152344 284.398438 628.109375 283.550781 628.109375 C 282.707031 628.109375 281.867188 628.152344 281.027344 628.234375 C 280.1875 628.316406 279.351562 628.441406 278.523438 628.605469 C 277.695312 628.769531 276.878906 628.976562 276.070312 629.21875 C 275.261719 629.464844 274.46875 629.75 273.6875 630.070312 C 272.90625 630.394531 272.144531 630.753906 271.402344 631.152344 C 270.65625 631.550781 269.933594 631.984375 269.230469 632.453125 C 268.527344 632.921875 267.851562 633.425781 267.199219 633.960938 C 266.546875 634.496094 265.921875 635.0625 265.324219 635.660156 C 264.726562 636.257812 264.160156 636.882812 263.625 637.535156 C 263.089844 638.1875 262.589844 638.863281 262.121094 639.566406 C 261.648438 640.269531 261.214844 640.992188 260.820312 641.734375 C 260.421875 642.480469 260.058594 643.242188 259.738281 644.023438 C 259.414062 644.804688 259.128906 645.597656 258.886719 646.40625 C 258.640625 647.210938 258.433594 648.03125 258.269531 648.859375 C 258.105469 649.6875 257.980469 650.519531 257.898438 651.359375 C 257.816406 652.199219 257.773438 653.042969 257.773438 653.886719 L 257.773438 756.996094 C 257.773438 758.261719 257.804688 759.527344 257.867188 760.792969 C 257.929688 762.054688 258.023438 763.316406 258.148438 764.578125 C 258.269531 765.835938 258.425781 767.09375 258.613281 768.34375 C 258.796875 769.597656 259.015625 770.84375 259.261719 772.085938 C 259.507812 773.324219 259.785156 774.558594 260.09375 775.789062 C 260.398438 777.015625 260.738281 778.234375 261.105469 779.445312 C 261.472656 780.65625 261.871094 781.859375 262.296875 783.050781 C 262.722656 784.242188 263.175781 785.421875 263.660156 786.589844 C 264.144531 787.761719 264.660156 788.917969 265.199219 790.0625 C 265.742188 791.207031 266.308594 792.335938 266.90625 793.453125 C 267.503906 794.566406 268.125 795.667969 268.777344 796.753906 C 269.429688 797.839844 270.105469 798.910156 270.808594 799.960938 C 271.511719 801.011719 272.238281 802.046875 272.992188 803.0625 C 273.746094 804.082031 274.527344 805.078125 275.328125 806.054688 C 276.132812 807.035156 276.957031 807.992188 277.808594 808.929688 C 278.65625 809.867188 279.53125 810.785156 280.425781 811.679688 C 281.320312 812.574219 282.238281 813.445312 283.175781 814.296875 C 284.113281 815.148438 285.070312 815.972656 286.046875 816.777344 C 287.027344 817.578125 288.023438 818.359375 289.039062 819.113281 C 290.058594 819.867188 291.089844 820.59375 292.144531 821.296875 C 293.195312 822 294.265625 822.675781 295.351562 823.328125 C 296.4375 823.976562 297.535156 824.601562 298.652344 825.199219 C 299.769531 825.796875 300.898438 826.363281 302.042969 826.90625 C 303.1875 827.445312 304.34375 827.957031 305.511719 828.441406 C 306.683594 828.925781 307.863281 829.382812 309.054688 829.808594 C 310.246094 830.234375 311.449219 830.632812 312.660156 831 C 313.871094 831.367188 315.089844 831.703125 316.316406 832.011719 C 317.542969 832.320312 318.78125 832.597656 320.019531 832.84375 C 321.261719 833.089844 322.507812 833.308594 323.761719 833.492188 C 325.011719 833.679688 326.269531 833.832031 327.527344 833.957031 C 328.785156 834.082031 330.050781 834.175781 331.3125 834.238281 C 332.578125 834.296875 333.84375 834.328125 335.109375 834.328125 L 747.546875 834.328125 C 748.8125 834.328125 750.078125 834.296875 751.34375 834.238281 C 752.605469 834.175781 753.867188 834.082031 755.128906 833.957031 C 756.386719 833.832031 757.644531 833.679688 758.894531 833.492188 C 760.144531 833.308594 761.394531 833.089844 762.632812 832.84375 C 763.875 832.597656 765.109375 832.320312 766.335938 832.011719 C 767.566406 831.703125 768.785156 831.367188 769.996094 831 C 771.207031 830.632812 772.410156 830.234375 773.601562 829.808594 C 774.792969 829.382812 775.972656 828.925781 777.140625 828.441406 C 778.3125 827.957031 779.46875 827.445312 780.613281 826.90625 C 781.753906 826.363281 782.886719 825.796875 784 825.199219 C 785.117188 824.601562 786.21875 823.976562 787.304688 823.328125 C 788.390625 822.675781 789.457031 822 790.511719 821.296875 C 791.5625 820.59375 792.597656 819.867188 793.613281 819.113281 C 794.632812 818.359375 795.628906 817.578125 796.605469 816.777344 C 797.585938 815.972656 798.542969 815.148438 799.480469 814.296875 C 800.417969 813.445312 801.335938 812.574219 802.230469 811.679688 C 803.125 810.785156 803.996094 809.867188 804.847656 808.929688 C 805.695312 807.992188 806.523438 807.035156 807.328125 806.054688 C 808.128906 805.078125 808.90625 804.082031 809.660156 803.0625 C 810.414062 802.046875 811.144531 801.011719 811.847656 799.960938 C 812.550781 798.910156 813.226562 797.839844 813.878906 796.753906 C 814.527344 795.667969 815.152344 794.566406 815.75 793.453125 C 816.34375 792.335938 816.914062 791.207031 817.453125 790.0625 C 817.996094 788.917969 818.507812 787.761719 818.992188 786.589844 C 819.476562 785.421875 819.933594 784.242188 820.359375 783.050781 C 820.785156 781.859375 821.183594 780.65625 821.550781 779.445312 C 821.917969 778.234375 822.253906 777.015625 822.5625 775.789062 C 822.871094 774.558594 823.148438 773.324219 823.394531 772.085938 C 823.640625 770.84375 823.855469 769.597656 824.042969 768.34375 C 824.230469 767.09375 824.382812 765.835938 824.507812 764.578125 C 824.632812 763.316406 824.726562 762.054688 824.785156 760.792969 C 824.847656 759.527344 824.878906 758.261719 824.878906 756.996094 L 824.878906 293.003906 C 824.878906 291.738281 824.847656 290.472656 824.785156 289.207031 C 824.726562 287.945312 824.632812 286.683594 824.507812 285.421875 C 824.382812 284.164062 824.230469 282.90625 824.042969 281.65625 C 823.855469 280.402344 823.640625 279.15625 823.394531 277.914062 C 823.148438 276.675781 822.871094 275.441406 822.5625 274.210938 C 822.253906 272.984375 821.917969 271.765625 821.550781 270.554688 C 821.183594 269.34375 820.785156 268.140625 820.359375 266.949219 C 819.933594 265.757812 819.476562 264.578125 818.992188 263.410156 C 818.507812 262.238281 817.996094 261.082031 817.457031 259.9375 C 816.914062 258.792969 816.34375 257.664062 815.75 256.546875 C 815.152344 255.433594 814.527344 254.332031 813.878906 253.246094 C 813.226562 252.160156 812.550781 251.089844 811.847656 250.039062 C 811.144531 248.988281 810.414062 247.953125 809.660156 246.933594 C 808.90625 245.917969 808.128906 244.921875 807.328125 243.941406 C 806.523438 242.964844 805.695312 242.007812 804.847656 241.070312 C 803.996094 240.132812 803.125 239.214844 802.230469 238.320312 C 801.335938 237.425781 800.417969 236.554688 799.480469 235.703125 C 798.542969 234.851562 797.585938 234.027344 796.605469 233.222656 C 795.628906 232.421875 794.632812 231.640625 793.613281 230.886719 C 792.597656 230.132812 791.5625 229.40625 790.511719 228.703125 C 789.457031 228 788.390625 227.324219 787.304688 226.671875 C 786.21875 226.023438 785.117188 225.398438 784 224.800781 C 782.886719 224.203125 781.753906 223.636719 780.613281 223.09375 C 779.46875 222.554688 778.3125 222.039062 777.140625 221.554688 C 775.972656 221.070312 774.792969 220.617188 773.601562 220.191406 C 772.410156 219.765625 771.207031 219.367188 769.996094 219 C 768.785156 218.632812 767.566406 218.296875 766.335938 217.988281 C 765.109375 217.679688 763.875 217.402344 762.632812 217.15625 C 761.394531 216.910156 760.144531 216.691406 758.894531 216.507812 C 757.644531 216.320312 756.386719 216.167969 755.128906 216.042969 C 753.867188 215.917969 752.605469 215.824219 751.34375 215.761719 C 750.078125 215.699219 748.8125 215.671875 747.546875 215.671875 L 335.109375 215.671875 C 333.84375 215.671875 332.578125 215.699219 331.3125 215.761719 C 330.050781 215.824219 328.785156 215.917969 327.527344 216.042969 C 326.269531 216.167969 325.011719 216.320312 323.761719 216.507812 C 322.507812 216.691406 321.261719 216.910156 320.019531 217.15625 C 318.78125 217.402344 317.542969 217.679688 316.316406 217.988281 C 315.089844 218.296875 313.871094 218.632812 312.660156 219 C 311.449219 219.367188 310.246094 219.765625 309.054688 220.191406 C 307.863281 220.617188 306.683594 221.070312 305.511719 221.554688 C 304.34375 222.039062 303.1875 222.554688 302.042969 223.09375 C 300.898438 223.636719 299.769531 224.203125 298.652344 224.800781 C 297.535156 225.398438 296.4375 226.023438 295.351562 226.671875 C 294.265625 227.324219 293.195312 228 292.144531 228.703125 C 291.089844 229.40625 290.058594 230.132812 289.039062 230.886719 C 288.023438 231.640625 287.027344 232.421875 286.046875 233.222656 C 285.070312 234.027344 284.113281 234.851562 283.175781 235.703125 C 282.238281 236.554688 281.320312 237.425781 280.425781 238.320312 C 279.53125 239.214844 278.65625 240.132812 277.808594 241.070312 C 276.957031 242.007812 276.132812 242.964844 275.328125 243.941406 C 274.527344 244.921875 273.746094 245.917969 272.992188 246.933594 C 272.238281 247.953125 271.511719 248.988281 270.808594 250.039062 C 270.105469 251.089844 269.429688 252.160156 268.777344 253.246094 C 268.125 254.332031 267.503906 255.433594 266.90625 256.546875 C 266.308594 257.664062 265.742188 258.792969 265.199219 259.9375 C 264.660156 261.082031 264.144531 262.238281 263.660156 263.410156 C 263.175781 264.578125 262.722656 265.757812 262.296875 266.949219 C 261.871094 268.140625 261.472656 269.34375 261.105469 270.554688 C 260.738281 271.765625 260.398438 272.984375 260.09375 274.210938 C 259.785156 275.441406 259.507812 276.675781 259.261719 277.914062 C 259.015625 279.15625 258.796875 280.402344 258.613281 281.65625 C 258.425781 282.90625 258.269531 284.164062 258.148438 285.421875 C 258.023438 286.683594 257.929688 287.945312 257.867188 289.207031 C 257.804688 290.472656 257.773438 291.738281 257.773438 293.003906 L 257.773438 396.113281 C 257.773438 396.957031 257.816406 397.800781 257.898438 398.640625 C 257.980469 399.480469 258.105469 400.3125 258.269531 401.140625 C 258.433594 401.96875 258.640625 402.789062 258.886719 403.59375 C 259.128906 404.402344 259.414062 405.195312 259.738281 405.976562 C 260.058594 406.757812 260.421875 407.519531 260.820312 408.265625 C 261.214844 409.007812 261.648438 409.730469 262.121094 410.433594 C 262.589844 411.136719 263.089844 411.8125 263.625 412.464844 C 264.160156 413.117188 264.726562 413.742188 265.324219 414.339844 C 265.921875 414.9375 266.546875 415.503906 267.199219 416.039062 C 267.851562 416.574219 268.527344 417.078125 269.230469 417.546875 C 269.933594 418.015625 270.65625 418.449219 271.402344 418.847656 C 272.144531 419.242188 272.90625 419.605469 273.6875 419.925781 C 274.46875 420.25 275.261719 420.535156 276.070312 420.78125 C 276.878906 421.023438 277.695312 421.230469 278.523438 421.394531 C 279.351562 421.558594 280.1875 421.683594 281.027344 421.765625 C 281.867188 421.847656 282.707031 421.890625 283.550781 421.890625 C 284.398438 421.890625 285.238281 421.847656 286.078125 421.765625 C 286.917969 421.683594 287.753906 421.558594 288.582031 421.394531 C 289.410156 421.230469 290.226562 421.023438 291.035156 420.78125 C 291.84375 420.535156 292.636719 420.25 293.417969 419.925781 C 294.195312 419.605469 294.960938 419.242188 295.703125 418.847656 C 296.449219 418.449219 297.171875 418.015625 297.875 417.546875 C 298.574219 417.078125 299.253906 416.574219 299.90625 416.039062 C 300.558594 415.503906 301.183594 414.9375 301.78125 414.339844 C 302.375 413.742188 302.941406 413.117188 303.480469 412.464844 C 304.015625 411.8125 304.515625 411.136719 304.984375 410.433594 C 305.453125 409.730469 305.886719 409.007812 306.285156 408.265625 C 306.683594 407.519531 307.042969 406.757812 307.367188 405.976562 C 307.691406 405.195312 307.976562 404.402344 308.21875 403.59375 C 308.464844 402.789062 308.671875 401.96875 308.835938 401.140625 C 309 400.3125 309.125 399.480469 309.207031 398.640625 C 309.289062 397.800781 309.328125 396.957031 309.328125 396.113281 Z M 309.328125 293.003906 "/></g><path style=" stroke:none;fill-rule:evenodd;fill:#ffffff;fill-opacity:1;" d="M 611.132812 543.25 C 611.730469 542.652344 612.300781 542.027344 612.835938 541.375 C 613.375 540.722656 613.878906 540.042969 614.347656 539.339844 C 614.820312 538.640625 615.253906 537.914062 615.652344 537.167969 C 616.050781 536.425781 616.414062 535.660156 616.738281 534.878906 C 617.0625 534.097656 617.347656 533.304688 617.59375 532.496094 C 617.839844 531.683594 618.042969 530.867188 618.210938 530.035156 C 618.375 529.207031 618.5 528.371094 618.582031 527.53125 C 618.664062 526.6875 618.707031 525.84375 618.707031 525 C 618.707031 524.15625 618.664062 523.3125 618.582031 522.46875 C 618.5 521.628906 618.375 520.792969 618.210938 519.964844 C 618.042969 519.132812 617.839844 518.316406 617.59375 517.503906 C 617.347656 516.695312 617.0625 515.902344 616.738281 515.121094 C 616.414062 514.339844 616.050781 513.574219 615.652344 512.832031 C 615.253906 512.085938 614.820312 511.359375 614.347656 510.660156 C 613.878906 509.957031 613.375 509.277344 612.835938 508.625 C 612.300781 507.972656 611.730469 507.347656 611.132812 506.75 L 456.46875 352.085938 C 455.871094 351.484375 455.246094 350.917969 454.589844 350.382812 C 453.9375 349.84375 453.261719 349.339844 452.558594 348.871094 C 451.855469 348.398438 451.128906 347.964844 450.382812 347.566406 C 449.640625 347.167969 448.875 346.804688 448.09375 346.480469 C 447.3125 346.15625 446.519531 345.871094 445.707031 345.625 C 444.898438 345.378906 444.082031 345.175781 443.25 345.007812 C 442.421875 344.84375 441.585938 344.71875 440.746094 344.636719 C 439.902344 344.554688 439.058594 344.511719 438.214844 344.511719 C 437.367188 344.511719 436.523438 344.550781 435.683594 344.632812 C 434.839844 344.71875 434.003906 344.839844 433.175781 345.003906 C 432.347656 345.171875 431.527344 345.375 430.71875 345.621094 C 429.90625 345.867188 429.113281 346.148438 428.332031 346.472656 C 427.550781 346.796875 426.785156 347.15625 426.039062 347.554688 C 425.292969 347.957031 424.570312 348.390625 423.867188 348.859375 C 423.164062 349.328125 422.484375 349.832031 421.832031 350.367188 C 421.175781 350.90625 420.550781 351.472656 419.953125 352.070312 C 419.355469 352.667969 418.789062 353.292969 418.25 353.949219 C 417.714844 354.601562 417.210938 355.28125 416.742188 355.984375 C 416.273438 356.6875 415.835938 357.410156 415.4375 358.15625 C 415.039062 358.902344 414.679688 359.667969 414.355469 360.449219 C 414.03125 361.230469 413.75 362.023438 413.503906 362.835938 C 413.257812 363.644531 413.050781 364.464844 412.886719 365.292969 C 412.722656 366.121094 412.597656 366.957031 412.515625 367.800781 C 412.433594 368.640625 412.394531 369.484375 412.394531 370.332031 C 412.394531 371.175781 412.433594 372.019531 412.519531 372.863281 C 412.601562 373.703125 412.726562 374.539062 412.890625 375.367188 C 413.058594 376.199219 413.261719 377.015625 413.507812 377.828125 C 413.753906 378.636719 414.039062 379.429688 414.363281 380.210938 C 414.6875 380.992188 415.050781 381.757812 415.449219 382.5 C 415.847656 383.246094 416.28125 383.972656 416.753906 384.675781 C 417.222656 385.378906 417.726562 386.054688 418.265625 386.710938 C 418.800781 387.363281 419.367188 387.988281 419.96875 388.585938 L 530.65625 499.222656 L 77.332031 499.222656 C 76.488281 499.222656 75.644531 499.265625 74.804688 499.347656 C 73.964844 499.429688 73.132812 499.554688 72.304688 499.71875 C 71.476562 499.882812 70.65625 500.085938 69.851562 500.332031 C 69.042969 500.578125 68.246094 500.863281 67.46875 501.183594 C 66.6875 501.507812 65.925781 501.867188 65.179688 502.265625 C 64.4375 502.664062 63.714844 503.097656 63.011719 503.566406 C 62.308594 504.035156 61.632812 504.539062 60.980469 505.074219 C 60.328125 505.609375 59.703125 506.175781 59.105469 506.773438 C 58.507812 507.371094 57.941406 507.996094 57.40625 508.648438 C 56.871094 509.300781 56.367188 509.976562 55.898438 510.679688 C 55.429688 511.378906 54.996094 512.105469 54.597656 512.847656 C 54.199219 513.59375 53.839844 514.355469 53.515625 515.136719 C 53.195312 515.914062 52.910156 516.710938 52.664062 517.515625 C 52.417969 518.324219 52.214844 519.144531 52.050781 519.972656 C 51.886719 520.800781 51.761719 521.632812 51.679688 522.472656 C 51.597656 523.3125 51.554688 524.15625 51.554688 525 C 51.554688 525.84375 51.597656 526.6875 51.679688 527.527344 C 51.761719 528.367188 51.886719 529.199219 52.050781 530.027344 C 52.214844 530.855469 52.417969 531.675781 52.664062 532.484375 C 52.910156 533.289062 53.195312 534.085938 53.515625 534.863281 C 53.839844 535.644531 54.199219 536.40625 54.597656 537.152344 C 54.996094 537.894531 55.429688 538.621094 55.898438 539.320312 C 56.367188 540.023438 56.871094 540.699219 57.40625 541.351562 C 57.941406 542.003906 58.507812 542.628906 59.105469 543.226562 C 59.703125 543.824219 60.328125 544.390625 60.980469 544.925781 C 61.632812 545.460938 62.308594 545.964844 63.011719 546.433594 C 63.714844 546.902344 64.4375 547.335938 65.179688 547.734375 C 65.925781 548.132812 66.6875 548.492188 67.46875 548.816406 C 68.246094 549.136719 69.042969 549.421875 69.851562 549.667969 C 70.65625 549.914062 71.476562 550.117188 72.304688 550.28125 C 73.132812 550.445312 73.964844 550.570312 74.804688 550.652344 C 75.644531 550.734375 76.488281 550.777344 77.332031 550.777344 L 530.65625 550.777344 L 419.96875 661.414062 C 419.371094 662.011719 418.800781 662.636719 418.265625 663.292969 C 417.730469 663.945312 417.226562 664.621094 416.757812 665.324219 C 416.289062 666.027344 415.855469 666.753906 415.453125 667.5 C 415.054688 668.242188 414.695312 669.007812 414.371094 669.789062 C 414.046875 670.570312 413.765625 671.363281 413.519531 672.171875 C 413.273438 672.980469 413.066406 673.800781 412.902344 674.628906 C 412.738281 675.457031 412.613281 676.292969 412.53125 677.136719 C 412.449219 677.976562 412.40625 678.820312 412.40625 679.664062 C 412.40625 680.511719 412.449219 681.351562 412.53125 682.195312 C 412.613281 683.035156 412.738281 683.871094 412.902344 684.699219 C 413.066406 685.527344 413.273438 686.347656 413.519531 687.15625 C 413.765625 687.964844 414.046875 688.761719 414.371094 689.542969 C 414.695312 690.324219 415.054688 691.085938 415.453125 691.832031 C 415.855469 692.578125 416.289062 693.300781 416.757812 694.003906 C 417.226562 694.707031 417.730469 695.386719 418.265625 696.039062 C 418.800781 696.691406 419.371094 697.316406 419.96875 697.914062 C 420.566406 698.511719 421.191406 699.082031 421.84375 699.617188 C 422.496094 700.152344 423.175781 700.65625 423.878906 701.125 C 424.582031 701.59375 425.304688 702.027344 426.050781 702.425781 C 426.796875 702.824219 427.558594 703.1875 428.339844 703.511719 C 429.121094 703.832031 429.917969 704.117188 430.726562 704.363281 C 431.535156 704.609375 432.351562 704.8125 433.183594 704.980469 C 434.011719 705.144531 434.847656 705.269531 435.6875 705.351562 C 436.527344 705.433594 437.371094 705.476562 438.21875 705.476562 C 439.0625 705.476562 439.90625 705.433594 440.746094 705.351562 C 441.589844 705.269531 442.421875 705.144531 443.253906 704.980469 C 444.082031 704.8125 444.902344 704.609375 445.710938 704.363281 C 446.519531 704.117188 447.3125 703.832031 448.09375 703.511719 C 448.875 703.1875 449.640625 702.824219 450.382812 702.425781 C 451.128906 702.027344 451.855469 701.59375 452.558594 701.125 C 453.257812 700.65625 453.9375 700.152344 454.589844 699.617188 C 455.246094 699.082031 455.871094 698.511719 456.46875 697.914062 Z M 611.132812 543.25 "/></g></svg>