<svg xmlns="http://www.w3.org/2000/svg" xmlns:xlink="http://www.w3.org/1999/xlink" width="1100" zoomAndPan="magnify" viewBox="0 0 824.88 1049.999947" height="1400" preserveAspectRatio="xMidYMid meet" version="1.2"><defs><clipPath id="10cb7d5266"><path d="M 103 164 L 824.761719 164 L 824.761719 937.441406 L 103 937.441406 Z M 103 164 "/></clipPath><clipPath id="57017dd92c"><path d="M 103 430 L 722 430 L 722 937.441406 L 103 937.441406 Z M 103 430 "/></clipPath></defs><g id="6ccd7f7493"><g clip-rule="nonzero" clip-path="url(#10cb7d5266)"><path style=" stroke:none;fill-rule:nonzero;fill:#ffffff;fill-opacity:1;" d="M 644.4375 937.441406 C 647.390625 937.441406 650.34375 937.367188 653.292969 937.222656 C 656.242188 937.078125 659.183594 936.859375 662.125 936.570312 C 665.0625 936.28125 667.992188 935.921875 670.914062 935.488281 C 673.835938 935.054688 676.742188 934.546875 679.640625 933.972656 C 682.535156 933.398438 685.417969 932.75 688.28125 932.03125 C 691.144531 931.316406 693.992188 930.527344 696.816406 929.671875 C 699.644531 928.8125 702.445312 927.886719 705.226562 926.890625 C 708.007812 925.898438 710.761719 924.835938 713.488281 923.703125 C 716.21875 922.574219 718.917969 921.378906 721.585938 920.117188 C 724.257812 918.851562 726.894531 917.527344 729.496094 916.132812 C 732.101562 914.742188 734.671875 913.285156 737.203125 911.769531 C 739.734375 910.25 742.230469 908.671875 744.6875 907.03125 C 747.140625 905.390625 749.554688 903.6875 751.925781 901.929688 C 754.296875 900.171875 756.625 898.355469 758.910156 896.480469 C 761.191406 894.609375 763.425781 892.679688 765.613281 890.695312 C 767.804688 888.714844 769.941406 886.675781 772.03125 884.589844 C 774.117188 882.5 776.152344 880.363281 778.136719 878.175781 C 780.121094 875.988281 782.046875 873.75 783.921875 871.46875 C 785.792969 869.1875 787.609375 866.859375 789.371094 864.488281 C 791.128906 862.113281 792.828125 859.703125 794.46875 857.246094 C 796.109375 854.789062 797.691406 852.296875 799.207031 849.761719 C 800.726562 847.230469 802.179688 844.660156 803.574219 842.058594 C 804.964844 839.453125 806.292969 836.816406 807.554688 834.144531 C 808.816406 831.476562 810.015625 828.777344 811.144531 826.050781 C 812.273438 823.320312 813.335938 820.566406 814.332031 817.785156 C 815.328125 815.007812 816.253906 812.203125 817.109375 809.378906 C 817.96875 806.550781 818.753906 803.707031 819.472656 800.839844 C 820.191406 797.976562 820.835938 795.097656 821.414062 792.199219 C 821.988281 789.304688 822.492188 786.394531 822.925781 783.472656 C 823.359375 780.550781 823.722656 777.621094 824.011719 774.683594 C 824.300781 771.746094 824.519531 768.800781 824.664062 765.851562 C 824.808594 762.902344 824.878906 759.949219 824.878906 756.996094 C 824.878906 754.042969 824.808594 751.09375 824.664062 748.144531 C 824.519531 745.195312 824.300781 742.25 824.011719 739.3125 C 823.722656 736.371094 823.359375 733.441406 822.925781 730.519531 C 822.492188 727.601562 821.988281 724.691406 821.414062 721.792969 C 820.835938 718.898438 820.191406 716.019531 819.472656 713.152344 C 818.753906 710.289062 817.96875 707.445312 817.109375 704.617188 C 816.253906 701.792969 815.328125 698.988281 814.332031 696.207031 C 813.335938 693.425781 812.273438 690.671875 811.144531 687.945312 C 810.015625 685.214844 808.816406 682.519531 807.554688 679.847656 C 806.292969 677.179688 804.964844 674.542969 803.574219 671.9375 C 802.179688 669.332031 800.726562 666.765625 799.207031 664.230469 C 797.691406 661.699219 796.109375 659.203125 794.46875 656.75 C 792.828125 654.292969 791.128906 651.878906 789.371094 649.507812 C 787.609375 647.136719 785.792969 644.808594 783.921875 642.527344 C 782.046875 640.242188 780.121094 638.007812 778.136719 635.820312 C 776.152344 633.632812 774.117188 631.492188 772.03125 629.40625 C 769.941406 627.316406 767.804688 625.28125 765.617188 623.296875 C 763.425781 621.316406 761.191406 619.386719 758.910156 617.511719 C 756.625 615.640625 754.300781 613.824219 751.925781 612.066406 C 749.554688 610.304688 747.140625 608.605469 744.6875 606.964844 C 742.230469 605.324219 739.734375 603.746094 737.203125 602.226562 C 734.671875 600.707031 732.101562 599.253906 729.496094 597.859375 C 726.894531 596.46875 724.257812 595.140625 721.585938 593.878906 C 718.917969 592.617188 716.21875 591.421875 713.488281 590.289062 C 710.761719 589.160156 708.007812 588.097656 705.226562 587.101562 C 702.445312 586.109375 699.644531 585.183594 696.816406 584.324219 C 693.992188 583.46875 691.144531 582.679688 688.28125 581.960938 C 685.417969 581.246094 682.535156 580.597656 679.640625 580.023438 C 676.742188 579.445312 673.835938 578.941406 670.914062 578.507812 C 667.992188 578.074219 665.0625 577.714844 662.125 577.421875 C 659.183594 577.132812 656.242188 576.917969 653.292969 576.773438 C 650.34375 576.628906 647.390625 576.554688 644.4375 576.554688 C 641.484375 576.554688 638.53125 576.628906 635.582031 576.773438 C 632.632812 576.917969 629.691406 577.132812 626.75 577.421875 C 623.8125 577.714844 620.882812 578.074219 617.960938 578.507812 C 615.039062 578.941406 612.132812 579.445312 609.234375 580.023438 C 606.339844 580.597656 603.457031 581.246094 600.59375 581.960938 C 597.730469 582.679688 594.882812 583.46875 592.058594 584.324219 C 589.230469 585.183594 586.429688 586.109375 583.648438 587.101562 C 580.867188 588.097656 578.113281 589.160156 575.386719 590.289062 C 572.65625 591.421875 569.957031 592.617188 567.289062 593.878906 C 564.617188 595.140625 561.980469 596.46875 559.378906 597.859375 C 556.773438 599.253906 554.203125 600.707031 551.671875 602.226562 C 549.136719 603.746094 546.644531 605.324219 544.1875 606.964844 C 541.734375 608.605469 539.320312 610.304688 536.949219 612.066406 C 534.574219 613.824219 532.25 615.640625 529.964844 617.511719 C 527.683594 619.386719 525.449219 621.316406 523.257812 623.296875 C 521.070312 625.28125 518.933594 627.316406 516.84375 629.40625 C 514.757812 631.492188 512.722656 633.632812 510.738281 635.820312 C 508.753906 638.007812 506.828125 640.242188 504.953125 642.527344 C 503.082031 644.808594 501.265625 647.136719 499.503906 649.507812 C 497.746094 651.878906 496.046875 654.292969 494.40625 656.75 C 492.765625 659.203125 491.183594 661.699219 489.667969 664.230469 C 488.148438 666.765625 486.695312 669.332031 485.300781 671.9375 C 483.910156 674.542969 482.582031 677.179688 481.320312 679.847656 C 480.058594 682.519531 478.859375 685.214844 477.730469 687.945312 C 476.601562 690.671875 475.539062 693.425781 474.542969 696.207031 C 473.546875 698.988281 472.621094 701.792969 471.765625 704.617188 C 470.90625 707.445312 470.121094 710.289062 469.402344 713.152344 C 468.683594 716.019531 468.039062 718.898438 467.460938 721.792969 C 466.886719 724.691406 466.382812 727.601562 465.949219 730.519531 C 465.515625 733.441406 465.152344 736.371094 464.863281 739.3125 C 464.574219 742.25 464.355469 745.195312 464.210938 748.144531 C 464.066406 751.09375 463.996094 754.042969 463.996094 756.996094 C 463.996094 759.949219 464.066406 762.902344 464.210938 765.851562 C 464.355469 768.800781 464.574219 771.746094 464.863281 774.683594 C 465.152344 777.621094 465.515625 780.550781 465.949219 783.472656 C 466.382812 786.394531 466.886719 789.304688 467.460938 792.199219 C 468.039062 795.097656 468.683594 797.976562 469.402344 800.839844 C 470.121094 803.707031 470.90625 806.550781 471.765625 809.378906 C 472.621094 812.203125 473.546875 815.007812 474.542969 817.785156 C 475.539062 820.566406 476.601562 823.320312 477.730469 826.050781 C 478.859375 828.777344 480.058594 831.476562 481.320312 834.144531 C 482.582031 836.816406 483.910156 839.453125 485.300781 842.058594 C 486.695312 844.660156 488.148438 847.230469 489.667969 849.761719 C 491.183594 852.296875 492.765625 854.789062 494.40625 857.246094 C 496.046875 859.703125 497.746094 862.113281 499.503906 864.488281 C 501.265625 866.859375 503.082031 869.1875 504.953125 871.46875 C 506.828125 873.75 508.753906 875.988281 510.738281 878.175781 C 512.722656 880.363281 514.757812 882.5 516.84375 884.589844 C 518.933594 886.675781 521.070312 888.714844 523.257812 890.695312 C 525.449219 892.679688 527.683594 894.609375 529.964844 896.480469 C 532.25 898.355469 534.574219 900.171875 536.949219 901.929688 C 539.320312 903.6875 541.734375 905.390625 544.1875 907.03125 C 546.644531 908.671875 549.136719 910.25 551.671875 911.769531 C 554.203125 913.285156 556.773438 914.742188 559.378906 916.132812 C 561.980469 917.527344 564.617188 918.851562 567.289062 920.117188 C 569.957031 921.378906 572.65625 922.574219 575.386719 923.703125 C 578.113281 924.835938 580.867188 925.898438 583.648438 926.890625 C 586.429688 927.886719 589.230469 928.8125 592.058594 929.671875 C 594.882812 930.527344 597.730469 931.316406 600.59375 932.03125 C 603.457031 932.75 606.339844 933.398438 609.234375 933.972656 C 612.132812 934.546875 615.039062 935.054688 617.960938 935.488281 C 620.882812 935.921875 623.8125 936.28125 626.75 936.570312 C 629.691406 936.859375 632.632812 937.078125 635.582031 937.222656 C 638.53125 937.367188 641.484375 937.441406 644.4375 937.441406 M 670.214844 679.664062 L 670.214844 731.21875 L 721.769531 731.21875 C 722.613281 731.21875 723.457031 731.261719 724.296875 731.34375 C 725.136719 731.425781 725.972656 731.550781 726.796875 731.714844 C 727.625 731.878906 728.445312 732.085938 729.253906 732.328125 C 730.0625 732.574219 730.855469 732.859375 731.632812 733.183594 C 732.414062 733.503906 733.175781 733.867188 733.921875 734.261719 C 734.664062 734.660156 735.390625 735.09375 736.089844 735.5625 C 736.792969 736.03125 737.46875 736.535156 738.121094 737.070312 C 738.777344 737.605469 739.402344 738.171875 739.996094 738.769531 C 740.59375 739.367188 741.160156 739.992188 741.695312 740.644531 C 742.230469 741.296875 742.734375 741.972656 743.203125 742.675781 C 743.671875 743.378906 744.105469 744.101562 744.503906 744.847656 C 744.902344 745.589844 745.261719 746.351562 745.585938 747.132812 C 745.910156 747.914062 746.191406 748.707031 746.4375 749.515625 C 746.683594 750.324219 746.886719 751.140625 747.050781 751.96875 C 747.21875 752.796875 747.339844 753.628906 747.421875 754.472656 C 747.507812 755.3125 747.546875 756.152344 747.546875 756.996094 C 747.546875 757.839844 747.507812 758.683594 747.421875 759.523438 C 747.339844 760.363281 747.21875 761.199219 747.050781 762.027344 C 746.886719 762.855469 746.683594 763.671875 746.4375 764.480469 C 746.191406 765.289062 745.910156 766.082031 745.585938 766.863281 C 745.261719 767.640625 744.902344 768.402344 744.503906 769.148438 C 744.105469 769.894531 743.671875 770.617188 743.203125 771.320312 C 742.734375 772.019531 742.230469 772.699219 741.695312 773.351562 C 741.160156 774.003906 740.59375 774.628906 739.996094 775.226562 C 739.402344 775.820312 738.777344 776.386719 738.121094 776.921875 C 737.46875 777.460938 736.792969 777.960938 736.089844 778.429688 C 735.390625 778.898438 734.664062 779.332031 733.921875 779.730469 C 733.175781 780.128906 732.414062 780.488281 731.632812 780.8125 C 730.855469 781.136719 730.0625 781.417969 729.253906 781.664062 C 728.445312 781.910156 727.625 782.113281 726.800781 782.28125 C 725.972656 782.445312 725.136719 782.566406 724.296875 782.652344 C 723.457031 782.734375 722.613281 782.773438 721.769531 782.773438 L 670.214844 782.773438 L 670.214844 834.328125 C 670.214844 835.175781 670.171875 836.015625 670.089844 836.855469 C 670.007812 837.695312 669.882812 838.53125 669.71875 839.359375 C 669.554688 840.1875 669.351562 841.003906 669.105469 841.8125 C 668.859375 842.621094 668.574219 843.414062 668.253906 844.195312 C 667.929688 844.972656 667.570312 845.738281 667.171875 846.480469 C 666.773438 847.226562 666.339844 847.949219 665.871094 848.652344 C 665.402344 849.351562 664.898438 850.03125 664.363281 850.683594 C 663.828125 851.335938 663.261719 851.960938 662.664062 852.558594 C 662.066406 853.15625 661.441406 853.71875 660.789062 854.257812 C 660.136719 854.792969 659.460938 855.292969 658.757812 855.761719 C 658.054688 856.230469 657.332031 856.664062 656.589844 857.0625 C 655.84375 857.460938 655.082031 857.820312 654.300781 858.144531 C 653.523438 858.46875 652.726562 858.753906 651.921875 858.996094 C 651.113281 859.242188 650.292969 859.449219 649.464844 859.613281 C 648.636719 859.777344 647.804688 859.902344 646.964844 859.984375 C 646.125 860.066406 645.28125 860.105469 644.4375 860.105469 C 643.59375 860.105469 642.75 860.066406 641.910156 859.984375 C 641.070312 859.902344 640.238281 859.777344 639.410156 859.613281 C 638.582031 859.449219 637.761719 859.242188 636.953125 858.996094 C 636.148438 858.753906 635.351562 858.46875 634.574219 858.144531 C 633.792969 857.820312 633.03125 857.460938 632.285156 857.0625 C 631.542969 856.664062 630.816406 856.230469 630.117188 855.761719 C 629.414062 855.292969 628.738281 854.792969 628.085938 854.257812 C 627.433594 853.71875 626.808594 853.15625 626.210938 852.558594 C 625.613281 851.960938 625.046875 851.335938 624.511719 850.683594 C 623.976562 850.03125 623.472656 849.351562 623.003906 848.652344 C 622.535156 847.949219 622.101562 847.226562 621.703125 846.480469 C 621.304688 845.738281 620.945312 844.972656 620.621094 844.195312 C 620.300781 843.414062 620.015625 842.621094 619.769531 841.8125 C 619.523438 841.003906 619.320312 840.1875 619.15625 839.359375 C 618.992188 838.53125 618.867188 837.695312 618.785156 836.855469 C 618.703125 836.015625 618.660156 835.175781 618.660156 834.328125 L 618.660156 782.773438 L 567.105469 782.773438 C 566.261719 782.773438 565.417969 782.734375 564.578125 782.652344 C 563.738281 782.566406 562.902344 782.445312 562.074219 782.28125 C 561.246094 782.113281 560.429688 781.910156 559.621094 781.664062 C 558.8125 781.417969 558.019531 781.136719 557.242188 780.8125 C 556.460938 780.488281 555.699219 780.128906 554.953125 779.730469 C 554.207031 779.332031 553.484375 778.898438 552.785156 778.429688 C 552.082031 777.960938 551.40625 777.460938 550.75 776.921875 C 550.097656 776.386719 549.472656 775.820312 548.878906 775.226562 C 548.28125 774.628906 547.714844 774.003906 547.179688 773.351562 C 546.644531 772.699219 546.140625 772.019531 545.671875 771.320312 C 545.203125 770.617188 544.769531 769.894531 544.371094 769.148438 C 543.972656 768.402344 543.613281 767.640625 543.289062 766.863281 C 542.964844 766.082031 542.683594 765.289062 542.4375 764.480469 C 542.191406 763.671875 541.988281 762.855469 541.824219 762.027344 C 541.65625 761.199219 541.535156 760.363281 541.453125 759.523438 C 541.367188 758.683594 541.328125 757.839844 541.328125 756.996094 C 541.328125 756.152344 541.367188 755.3125 541.453125 754.472656 C 541.535156 753.628906 541.65625 752.796875 541.824219 751.96875 C 541.988281 751.140625 542.191406 750.324219 542.4375 749.515625 C 542.683594 748.707031 542.964844 747.914062 543.289062 747.132812 C 543.613281 746.351562 543.972656 745.589844 544.371094 744.847656 C 544.769531 744.101562 545.203125 743.378906 545.671875 742.675781 C 546.140625 741.972656 546.644531 741.296875 547.179688 740.644531 C 547.714844 739.992188 548.28125 739.367188 548.878906 738.769531 C 549.472656 738.171875 550.097656 737.605469 550.75 737.070312 C 551.40625 736.535156 552.082031 736.03125 552.785156 735.5625 C 553.484375 735.09375 554.207031 734.660156 554.953125 734.261719 C 555.699219 733.867188 556.460938 733.503906 557.242188 733.183594 C 558.019531 732.859375 558.8125 732.574219 559.621094 732.328125 C 560.429688 732.085938 561.246094 731.878906 562.074219 731.714844 C 562.902344 731.550781 563.738281 731.425781 564.578125 731.34375 C 565.417969 731.261719 566.261719 731.21875 567.105469 731.21875 L 618.660156 731.21875 L 618.660156 679.664062 C 618.660156 678.820312 618.703125 677.976562 618.785156 677.136719 C 618.867188 676.296875 618.992188 675.464844 619.15625 674.636719 C 619.320312 673.808594 619.523438 672.988281 619.769531 672.183594 C 620.015625 671.375 620.300781 670.582031 620.621094 669.800781 C 620.945312 669.019531 621.304688 668.257812 621.703125 667.511719 C 622.101562 666.769531 622.535156 666.046875 623.003906 665.34375 C 623.472656 664.640625 623.976562 663.964844 624.511719 663.3125 C 625.046875 662.660156 625.613281 662.035156 626.210938 661.4375 C 626.808594 660.839844 627.433594 660.273438 628.085938 659.738281 C 628.738281 659.203125 629.414062 658.699219 630.117188 658.230469 C 630.816406 657.761719 631.542969 657.328125 632.285156 656.929688 C 633.03125 656.53125 633.792969 656.171875 634.574219 655.847656 C 635.351562 655.527344 636.148438 655.242188 636.953125 654.996094 C 637.761719 654.753906 638.582031 654.546875 639.410156 654.382812 C 640.238281 654.21875 641.070312 654.09375 641.910156 654.011719 C 642.75 653.929688 643.59375 653.886719 644.4375 653.886719 C 645.28125 653.886719 646.125 653.929688 646.964844 654.011719 C 647.804688 654.09375 648.636719 654.21875 649.464844 654.382812 C 650.292969 654.546875 651.113281 654.753906 651.921875 654.996094 C 652.726562 655.242188 653.523438 655.527344 654.300781 655.847656 C 655.082031 656.171875 655.84375 656.53125 656.589844 656.929688 C 657.332031 657.328125 658.058594 657.761719 658.757812 658.230469 C 659.460938 658.699219 660.136719 659.203125 660.789062 659.738281 C 661.441406 660.273438 662.066406 660.839844 662.664062 661.4375 C 663.261719 662.035156 663.828125 662.660156 664.363281 663.3125 C 664.898438 663.964844 665.402344 664.640625 665.871094 665.34375 C 666.339844 666.046875 666.773438 666.769531 667.171875 667.511719 C 667.570312 668.257812 667.929688 669.019531 668.253906 669.800781 C 668.574219 670.582031 668.859375 671.375 669.105469 672.183594 C 669.351562 672.988281 669.554688 673.808594 669.71875 674.636719 C 669.882812 675.464844 670.007812 676.296875 670.089844 677.136719 C 670.171875 677.976562 670.214844 678.820312 670.214844 679.664062 M 412.441406 164.113281 C 331.34375 164.113281 256.640625 179.015625 201.269531 204.171875 C 148.21875 228.300781 103.109375 266.863281 103.109375 318.78125 C 103.109375 370.695312 148.21875 409.257812 201.269531 433.386719 C 256.640625 458.546875 331.34375 473.445312 412.441406 473.445312 C 493.535156 473.445312 568.238281 458.546875 623.609375 433.386719 C 676.660156 409.257812 721.769531 370.695312 721.769531 318.78125 C 721.769531 266.863281 676.660156 228.300781 623.609375 204.171875 C 568.238281 179.015625 493.535156 164.113281 412.441406 164.113281 "/></g><g clip-rule="nonzero" clip-path="url(#57017dd92c)"><path style=" stroke:none;fill-rule:nonzero;fill:#ffffff;fill-opacity:1;" d="M 103.109375 473.445312 L 103.109375 430.191406 C 126.671875 452.460938 154.871094 468.90625 179.925781 480.300781 C 243.441406 509.171875 325.722656 525 412.441406 525 C 499.15625 525 581.4375 509.171875 644.953125 480.300781 C 670.007812 468.960938 698.210938 452.460938 721.769531 430.191406 L 721.769531 473.445312 C 721.769531 495.304688 713.777344 514.792969 700.582031 531.855469 C 697.71875 531.148438 694.847656 530.492188 691.960938 529.894531 C 689.074219 529.292969 686.179688 528.75 683.269531 528.261719 C 680.363281 527.769531 677.449219 527.335938 674.527344 526.957031 C 671.601562 526.578125 668.671875 526.257812 665.738281 525.988281 C 662.804688 525.722656 659.863281 525.511719 656.917969 525.355469 C 653.976562 525.199219 651.03125 525.101562 648.082031 525.058594 C 645.136719 525.015625 642.1875 525.027344 639.242188 525.097656 C 636.296875 525.164062 633.351562 525.289062 630.410156 525.46875 C 627.46875 525.652344 624.53125 525.886719 621.597656 526.179688 C 618.664062 526.472656 615.738281 526.820312 612.816406 527.222656 C 609.898438 527.628906 606.984375 528.085938 604.082031 528.601562 C 601.179688 529.117188 598.289062 529.683594 595.410156 530.308594 C 592.527344 530.933594 589.660156 531.613281 586.804688 532.347656 C 583.949219 533.078125 581.109375 533.867188 578.285156 534.707031 C 575.460938 535.550781 572.652344 536.445312 569.863281 537.394531 C 567.070312 538.339844 564.300781 539.34375 561.546875 540.394531 C 558.792969 541.449219 556.0625 542.554688 553.351562 543.714844 C 550.640625 544.871094 547.953125 546.078125 545.289062 547.339844 C 542.621094 548.597656 539.984375 549.910156 537.367188 551.269531 C 534.753906 552.628906 532.164062 554.039062 529.601562 555.496094 C 527.042969 556.957031 524.507812 558.460938 522.003906 560.019531 C 519.5 561.574219 517.027344 563.175781 514.585938 564.824219 C 512.140625 566.472656 509.730469 568.167969 507.351562 569.910156 C 504.972656 571.648438 502.628906 573.433594 500.316406 575.265625 C 498.007812 577.09375 495.730469 578.96875 493.492188 580.882812 C 491.25 582.800781 489.050781 584.757812 486.882812 586.757812 C 484.71875 588.757812 482.59375 590.800781 480.503906 592.878906 C 478.417969 594.960938 476.371094 597.082031 474.363281 599.242188 C 472.355469 601.398438 470.390625 603.597656 468.46875 605.828125 C 466.546875 608.0625 464.664062 610.332031 462.828125 612.636719 C 460.992188 614.941406 459.199219 617.28125 457.449219 619.65625 C 455.703125 622.027344 454 624.433594 452.34375 626.871094 C 439.054688 627.714844 425.753906 628.125 412.441406 628.109375 C 331.34375 628.109375 256.640625 613.210938 201.269531 588.050781 C 148.21875 563.925781 103.109375 525.359375 103.109375 473.445312 M 425.691406 679.5625 L 412.441406 679.664062 C 325.722656 679.664062 243.441406 663.835938 179.925781 634.964844 C 154.871094 623.625 126.671875 607.128906 103.109375 584.855469 L 103.109375 628.109375 C 103.109375 680.027344 148.21875 718.589844 201.269531 742.714844 C 256.640625 767.875 331.34375 782.773438 412.441406 782.773438 L 413.832031 782.773438 C 412.882812 774.085938 412.417969 765.375 412.441406 756.636719 C 412.46875 747.894531 412.976562 739.1875 413.976562 730.503906 C 414.972656 721.820312 416.449219 713.222656 418.410156 704.707031 C 420.367188 696.1875 422.792969 687.808594 425.691406 679.5625 M 425.585938 834.226562 L 412.441406 834.328125 C 325.722656 834.328125 243.441406 818.503906 179.925781 789.632812 C 154.871094 778.289062 126.671875 761.792969 103.109375 739.519531 L 103.109375 782.773438 C 103.109375 834.691406 148.21875 873.253906 201.269531 897.382812 C 256.640625 922.539062 331.34375 937.441406 412.441406 937.441406 C 440.074219 937.441406 466.984375 935.6875 492.609375 932.4375 C 485.015625 925.875 477.882812 918.851562 471.203125 911.363281 C 464.523438 903.875 458.355469 895.988281 452.699219 887.699219 C 447.042969 879.410156 441.945312 870.792969 437.40625 861.84375 C 432.871094 852.894531 428.929688 843.6875 425.585938 834.226562 "/></g></g></svg>